<svg width="22" height="8" viewBox="0 0 22 8" fill="none" xmlns="http://www.w3.org/2000/svg">
<path d="M2.71135 1.66444C2.18975 1.37751 1.59447 1.14674 0.928909 0.986593L0.956827 0.861882H3.6857C4.05558 0.874886 4.35572 0.986506 4.45339 1.38071L5.04644 4.21659L5.22812 5.07073L6.88917 0.861882H8.68266L6.01668 7.02753H4.22309L2.71135 1.66444ZM10.0019 7.03407H8.30582L9.36669 0.861882H11.0627L10.0019 7.03407ZM16.1505 1.01277L15.9198 2.34559L15.7664 2.28004C15.4595 2.15525 15.0544 2.03054 14.503 2.04371C13.8333 2.04371 13.533 2.31277 13.526 2.57546C13.526 2.86441 13.8893 3.05484 14.4826 3.33725C15.4598 3.77719 15.913 4.31557 15.9063 5.01819C15.8925 6.29864 14.7339 7.12606 12.9542 7.12606C12.1933 7.11942 11.4604 6.9681 11.0626 6.79757L11.3 5.41205L11.5233 5.51066C12.0747 5.74071 12.4375 5.83898 13.1147 5.83898C13.603 5.83898 14.1266 5.64838 14.1333 5.23488C14.1333 4.96565 13.9102 4.76851 13.254 4.46646C12.612 4.17087 11.7536 3.67848 11.7675 2.79198C11.7747 1.59042 12.9542 0.75 14.6292 0.75C15.2853 0.75 15.8159 0.887889 16.1505 1.01277ZM18.4047 4.84749H19.8145C19.7448 4.53889 19.4236 3.06147 19.4236 3.06147L19.3051 2.52964C19.2213 2.75943 19.0749 3.13373 19.0819 3.12056C19.0819 3.12056 18.5444 4.4929 18.4047 4.84749ZM20.4984 0.861882L21.8667 7.03399H20.2963C20.2963 7.03399 20.1426 6.32482 20.0939 6.10812H17.9162C17.8533 6.27219 17.5603 7.03399 17.5603 7.03399H15.7806L18.2999 1.37399C18.4745 0.973415 18.7819 0.861882 19.1864 0.861882H20.4984Z" fill="white"/>
</svg>
